<mxfile host="app.diagrams.net" agent="Mozilla/5.0 (Windows NT 10.0; Win64; x64) AppleWebKit/537.36 (KHTML, like Gecko) Chrome/131.0.0.0 Safari/537.36" version="24.8.6">
  <diagram name="Page-1" id="9dc1d2l9oLXiw8Xbm0MZ">
    <mxGraphModel dx="1050" dy="565" grid="1" gridSize="10" guides="1" tooltips="1" connect="1" arrows="1" fold="1" page="1" pageScale="1" pageWidth="827" pageHeight="1169" math="0" shadow="0">
      <root>
        <mxCell id="0" />
        <mxCell id="1" parent="0" />
        <mxCell id="AMqq3gwgWWOW2njY07qD-13" value="" style="edgeStyle=orthogonalEdgeStyle;rounded=0;orthogonalLoop=1;jettySize=auto;html=1;" edge="1" parent="1" source="AMqq3gwgWWOW2njY07qD-1" target="AMqq3gwgWWOW2njY07qD-7">
          <mxGeometry relative="1" as="geometry" />
        </mxCell>
        <mxCell id="AMqq3gwgWWOW2njY07qD-1" value="&lt;font style=&quot;font-size: 11px;&quot;&gt;Start&lt;/font&gt;" style="strokeWidth=2;html=1;shape=mxgraph.flowchart.terminator;whiteSpace=wrap;" vertex="1" parent="1">
          <mxGeometry x="330" y="240" width="130" height="60" as="geometry" />
        </mxCell>
        <mxCell id="AMqq3gwgWWOW2njY07qD-15" value="" style="edgeStyle=orthogonalEdgeStyle;rounded=0;orthogonalLoop=1;jettySize=auto;html=1;" edge="1" parent="1" source="AMqq3gwgWWOW2njY07qD-6" target="AMqq3gwgWWOW2njY07qD-9">
          <mxGeometry relative="1" as="geometry" />
        </mxCell>
        <mxCell id="AMqq3gwgWWOW2njY07qD-6" value="รับข้อมูล ชื่อ-นามสกุล จากผู้ใช้งาน" style="shape=parallelogram;perimeter=parallelogramPerimeter;whiteSpace=wrap;html=1;fixedSize=1;" vertex="1" parent="1">
          <mxGeometry x="295" y="420" width="200" height="60" as="geometry" />
        </mxCell>
        <mxCell id="AMqq3gwgWWOW2njY07qD-14" value="" style="edgeStyle=orthogonalEdgeStyle;rounded=0;orthogonalLoop=1;jettySize=auto;html=1;" edge="1" parent="1" source="AMqq3gwgWWOW2njY07qD-7" target="AMqq3gwgWWOW2njY07qD-6">
          <mxGeometry relative="1" as="geometry" />
        </mxCell>
        <mxCell id="AMqq3gwgWWOW2njY07qD-7" value="&lt;font style=&quot;font-size: 11px;&quot;&gt;ให้ผู้ใช้งานกรอก ชื่อ-นามสกุลผู้ใช้งาน&lt;/font&gt;" style="rounded=0;whiteSpace=wrap;html=1;" vertex="1" parent="1">
          <mxGeometry x="317.5" y="330" width="155" height="60" as="geometry" />
        </mxCell>
        <mxCell id="AMqq3gwgWWOW2njY07qD-16" value="" style="edgeStyle=orthogonalEdgeStyle;rounded=0;orthogonalLoop=1;jettySize=auto;html=1;" edge="1" parent="1" source="AMqq3gwgWWOW2njY07qD-9" target="AMqq3gwgWWOW2njY07qD-11">
          <mxGeometry relative="1" as="geometry" />
        </mxCell>
        <mxCell id="AMqq3gwgWWOW2njY07qD-9" value="&lt;font style=&quot;font-size: 11px;&quot;&gt;แสดงชื่อ-นามสกุลของผู้ใช้งาน&lt;/font&gt;" style="rounded=0;whiteSpace=wrap;html=1;" vertex="1" parent="1">
          <mxGeometry x="317.5" y="510" width="155" height="60" as="geometry" />
        </mxCell>
        <mxCell id="AMqq3gwgWWOW2njY07qD-17" value="" style="edgeStyle=orthogonalEdgeStyle;rounded=0;orthogonalLoop=1;jettySize=auto;html=1;" edge="1" parent="1" source="AMqq3gwgWWOW2njY07qD-11" target="AMqq3gwgWWOW2njY07qD-12">
          <mxGeometry relative="1" as="geometry" />
        </mxCell>
        <mxCell id="AMqq3gwgWWOW2njY07qD-11" value="Aomsin AomMoneys TC, RMUTL,&amp;nbsp;&lt;div&gt;Chiang Mai, Thailand&lt;/div&gt;" style="shape=parallelogram;perimeter=parallelogramPerimeter;whiteSpace=wrap;html=1;fixedSize=1;" vertex="1" parent="1">
          <mxGeometry x="267.5" y="600" width="255" height="60" as="geometry" />
        </mxCell>
        <mxCell id="AMqq3gwgWWOW2njY07qD-12" value="&lt;span style=&quot;font-size: 11px;&quot;&gt;Stop&lt;/span&gt;" style="strokeWidth=2;html=1;shape=mxgraph.flowchart.terminator;whiteSpace=wrap;" vertex="1" parent="1">
          <mxGeometry x="330" y="690" width="130" height="60" as="geometry" />
        </mxCell>
      </root>
    </mxGraphModel>
  </diagram>
</mxfile>
